<svg width="133" height="28" viewBox="0 0 133 28" fill="none" xmlns="http://www.w3.org/2000/svg">
<path d="M29 14C29 6.267 22.733 0 15 0C7.267 0 1 6.267 1 14C1 20.99 6.119 26.78 12.813 27.83V18.047H9.258V14H12.813V10.916C12.813 7.407 14.902 5.469 18.101 5.469C19.632 5.469 21.234 5.742 21.234 5.742V9.188H19.468C17.728 9.188 17.188 10.268 17.188 11.375V14H21.07L20.45 18.047H17.188V27.831C23.88 26.78 29 20.989 29 14Z" fill="#94A0A4"/>
<path fill-rule="evenodd" clip-rule="evenodd" d="M67 0C59.268 0 53 6.268 53 14C53 21.732 59.268 28 67 28C74.732 28 81 21.732 81 14C81 6.268 74.732 0 67 0ZM59.72 11.595H62.894V21.128H59.72V11.595ZM63.103 8.647C63.082 7.712 62.413 7 61.328 7C60.243 7 59.533 7.712 59.533 8.647C59.533 9.562 60.222 10.294 61.287 10.294H61.307C62.414 10.294 63.103 9.562 63.103 8.647ZM70.683 11.372C72.77 11.372 74.336 12.734 74.336 15.662V21.128H71.163V16.028C71.163 14.748 70.703 13.873 69.555 13.873C68.679 13.873 68.157 14.463 67.927 15.031C67.844 15.235 67.823 15.52 67.823 15.805V21.128H64.65C64.65 21.128 64.692 12.49 64.65 11.596H67.823V12.946C68.244 12.296 68.998 11.372 70.683 11.372Z" fill="#94A0A4"/>
<path fill-rule="evenodd" clip-rule="evenodd" d="M119 0C111.268 0 105 6.268 105 14C105 21.732 111.268 28 119 28C126.732 28 133 21.732 133 14C133 6.268 126.732 0 119 0ZM118.61 11.864L118.58 11.379C118.493 10.124 119.266 8.977 120.49 8.532C120.94 8.374 121.705 8.354 122.204 8.492C122.4 8.552 122.772 8.75 123.036 8.928L123.516 9.254L124.045 9.086C124.339 8.996 124.73 8.848 124.907 8.75C125.073 8.66 125.22 8.611 125.22 8.64C125.22 8.809 124.858 9.382 124.554 9.699C124.143 10.144 124.261 10.183 125.093 9.887C125.593 9.718 125.603 9.718 125.504 9.907C125.445 10.005 125.142 10.351 124.819 10.667C124.27 11.211 124.241 11.271 124.241 11.725C124.241 12.427 123.908 13.89 123.575 14.691C122.958 16.194 121.636 17.746 120.314 18.527C118.454 19.625 115.976 19.901 113.89 19.259C113.195 19.041 112 18.488 112 18.389C112 18.359 112.362 18.319 112.803 18.309C113.725 18.289 114.627 18.038 115.427 17.579L115.957 17.262L115.349 17.054C114.487 16.758 113.714 16.075 113.518 15.433C113.459 15.225 113.478 15.215 114.028 15.215L114.595 15.205L114.115 14.978C113.547 14.691 113.028 14.207 112.774 13.713C112.588 13.357 112.353 12.457 112.421 12.388C112.441 12.358 112.646 12.418 112.881 12.496C113.557 12.744 113.645 12.684 113.253 12.269C112.519 11.518 112.293 10.401 112.646 9.343L112.813 8.868L113.459 9.511C114.781 10.806 116.339 11.577 118.12 11.805L118.61 11.864Z" fill="#94A0A4"/>
</svg>
